<svg xmlns="http://www.w3.org/2000/svg" viewBox="0 0 293.18 285.92"><defs><style>.cls-1{fill:none;}.cls-2,.cls-3,.cls-4,.cls-5{fill:#31236b;}.cls-3,.cls-4,.cls-5{stroke:#31236b;stroke-miterlimit:10;}.cls-3{stroke-width:5px;}.cls-4{stroke-width:3px;}</style></defs><g id="Слой_2" data-name="Слой 2"><g id="Слой_1-2" data-name="Слой 1"><path class="cls-1" d="M147.05,145.91c-10.06,0-14.15,5.9-15.05,14.49-.72,6.88,6.57,12.65,14.79,12.74a13.15,13.15,0,0,0,13-13C159.91,152.07,154.4,145.9,147.05,145.91Z"/><path class="cls-1" d="M67.49,190.54Z"/><path class="cls-1" d="M197.64,263.91c.55-12.28,3.66-24,7.47-35.62a11.9,11.9,0,0,1-7.49,0c-3.92-1.28-7.79-2.68-11.57-4-.05,5.7.8,11.16-2.68,16.28-3.88,5.72-15.82,6.09-15.82,6.09s-2.28.14-3.22.06c-1.16-.1-2.33-.18-3.49-.27,12,9.52,24.29,19,36.77,28.77C197.61,271.17,197.48,267.53,197.64,263.91Zm-7.71-12q-1.87-6.07-3.73-12.14a1.23,1.23,0,0,1,.42-1.34l4,13.21Z"/><path class="cls-1" d="M180.12,67.08C176.89,44.8,165.86,26.22,152.57,8.7c-.16-.22-.51-.3-.75-.43-24,14.44-34.11,36.2-34.36,57.54,4.58-1.28,9.52-2.68,12.33-3.5,2.91-.35,5.81-.65,8.73-.77,4.24-.18,8.94,2.23,12,5.63l1.32-29.07.93-.08q-.76,15-1.51,30a12.93,12.93,0,0,1,2,3.56c2.14,6,3.93,12,5.65,17.39,5.1-2.81,17.71-5.38,18.53-5.19s1.76.37,2.75.56A56.11,56.11,0,0,0,180.12,67.08Z"/><path class="cls-1" d="M59.78,82.41c-9,1-17.94,2.59-26.85,4.17-8.4,1.48-16.74,3.29-25.41,5,.13.87.17,1.49.31,2.09a92.1,92.1,0,0,0,17,35.17c6.25,8.19,14.18,14.67,24.52,16.07a79.44,79.44,0,0,0,13.64.35c.3-3.15.65-6.57.78-8.73a14.27,14.27,0,0,1,.79-2.87h-.07c0-.31.09-.62.13-.93l.25,0c0-.08,0-.13,0-.13.13-.57,7.65-7.47,11.64-6.75,1.14.2,2.4-.31,4.54-.64-1.39-1.23-2.31-2.29-3.24-3a7.16,7.16,0,0,1-.47-1.31c-.49-.19-1-.38-1.47-.54-11-3.72-22.33-6.73-33.5-10.07-1.8-.53-3.56-1.16-5.31-1.85s-3.27-1.36-4.85-2.14-3-1.63-4.58-2.46c12.11,4.07,24.21,7.86,36.38,11.36,4.35,1.25,8.69,2.51,12.9,4.08a7,7,0,0,0-.76-1.92c-1.35-4-4.46-11.29-4.46-11.29l.83-7.29s3.85-6.51,8.52-12.74A41,41,0,0,0,59.78,82.41Z"/><path class="cls-1" d="M84.49,133.76l.32-.27-.78-.57c-5.65-4.26-10.93-4.3-13.12.64,3.37.44,6.74.87,10.12,1.22A5.12,5.12,0,0,0,84.49,133.76Z"/><path class="cls-1" d="M224.14,122.42a48.82,48.82,0,0,1,13,.21c-4.28.26-8.6.28-12.85.75a62.16,62.16,0,0,1,.42,7.33,30.94,30.94,0,0,1,7.83-.22L224.7,132c0,3.11-.23,6.14-.45,8.68.28,0,.56.07.83.12,14.56,2.4,29.06,5.2,42.54,7.65-5.88.44-12.72-.65-19.52-2.22-7.93-1.84-15.82-4-23.93-4.65-.32,3.44-.67,5.77-.67,5.77s6.08,3.33,8.18,6.75a41.89,41.89,0,0,1,3.47,6.88l8.42,1.77a45,45,0,0,1-7.93-.44A27,27,0,0,1,237,173.81l.63.15c0,.28-.07.56-.1.85l-.63-.14c0,.28-.06.56-.11.84-.06.44-.66,3.74-1.27,6.75,22.55,3.2,48.71-10.86,50.22-39.61a4.93,4.93,0,0,0-1.57-3.8c-3.65-2.39-7.54-4.41-11.38-6.49-11.08-6-21.87-12.61-33.32-17.79a55.66,55.66,0,0,0-21.51-5,74.47,74.47,0,0,1,4.24,6.39A20,20,0,0,1,224.14,122.42Z"/><path class="cls-1" d="M47.67,226c-1.56,14.13-.22,28.5-3.93,42.6,3.57-1.13,6.78-2.4,10.1-3.16,12.28-2.78,24.62-5.31,36.9-8.1a32.71,32.71,0,0,0,19-12.36,41.07,41.07,0,0,0,3.82-5.92c-2.44-1.23-5.63-2.58-5.63-2.58l-6.34-4.7S94,220.1,97.13,212.56a9.38,9.38,0,0,0,.06-3.52L91,212s-2.7.67-3.83.79c-4.18.44-8.08.16-10.44-4.14-.86-1.57-2-3.62-3.1-5.78l-6.75,3.82-.51-.92L73.16,202c-2.89-5.5-5.85-11.32-5.7-11.42s-.37-1.19-.88-2.87C56.15,197.48,49.45,210,47.67,226ZM75.21,240.6c3.68-3.52,7.38-7.06,10.75-10.87s6.5-8.08,9.72-12.14C87.77,231.2,76.35,241.41,64,250.75,67.77,247.37,71.57,244.07,75.21,240.6Z"/><path class="cls-2" d="M209.21,141.56c.46-.09.91-.2,1.35-.32-1.06.21-2.11.44-3.15.71Z"/><path class="cls-2" d="M267.62,148.49c-13.48-2.45-28-5.25-42.54-7.65-.27-.05-.55-.08-.83-.12,0,.31-.05.6-.08.9,8.11.62,16,2.81,23.93,4.65C254.9,147.84,261.74,148.93,267.62,148.49Z"/><path class="cls-2" d="M27.68,103.86c1.53.83,3,1.7,4.58,2.46s3.21,1.5,4.85,2.14,7.56,4.09,9.35,4.62c11.18,3.34,18.42,3.58,29.46,7.3.49.16,1,.35,1.47.54-.15-.53-.29-1.08-.43-1.62-4.21-1.57-8.55-2.83-12.9-4.08C51.89,111.72,39.79,107.93,27.68,103.86Z"/><path class="cls-2" d="M91.82,128.2a3.84,3.84,0,0,0-.95-1.93c-.66-.36-1.2-.63-1.69-1h0c.68.86,1.37,1.7,2.08,2.53l.05,0A5.37,5.37,0,0,1,91.82,128.2Z"/><path class="cls-2" d="M64.52,133.67h.07c.14-.4.26-.74.31-.91l-.25,0C64.61,133.05,64.56,133.36,64.52,133.67Z"/><path class="cls-3" d="M49.38,144.93c-10.34-1.4-18.27-7.88-24.52-16.07a92.1,92.1,0,0,1-17-35.17c-.14-.6-.18-1.22-.31-2.09,8.67-1.73,17-3.54,25.41-5,8.91-1.58,17.85-3.14,26.85-4.17a41,41,0,0,1,21.31,3.65C82,84.8,83,83.56,84,82.38c-10.69-4.8-22.34-6-34.89-3.44q-20.82,4.2-41.69,8.27C2.62,88.14,1.9,89,2.88,94c2.41,12.38,8.05,23.41,14.84,33.85,10.7,16.45,25.51,24.72,44.82,23.63,0-1.4.24-3.72.48-6.2A79.44,79.44,0,0,1,49.38,144.93Z"/><path class="cls-3" d="M113.56,239.09a41.07,41.07,0,0,1-3.82,5.92,32.71,32.71,0,0,1-19,12.36c-12.28,2.79-24.62,5.32-36.9,8.1-3.32.76-6.53,2-10.1,3.16,3.71-14.1,2.37-28.47,3.93-42.6,1.78-16,8.48-28.55,18.91-38.34-.48-1.54-1.07-3.49-1.62-5.32A77.83,77.83,0,0,0,53.77,195c-8.12,11.21-11,24.06-11.81,37.63-.6,10.4-1.53,20.78-2.55,31.14-.37,3.75-1.44,7.42-2.24,11.38,1-.1,1.45-.1,1.85-.19,14.91-3.41,29.8-6.93,44.74-10.21,10.34-2.28,20.13-5.5,27.54-13.62a46.8,46.8,0,0,0,7.12-10.33c-1.91-.48-3.19-.81-3.23-.84C114.73,239.7,114.17,239.4,113.56,239.09Z"/><path class="cls-3" d="M197.64,263.91c-.16,3.62,0,7.26,0,11.32-12.48-9.78-24.72-19.25-36.77-28.77q-4.84-.36-9.77-.64c9.06,7.05,18.27,13.88,27.31,20.95,6.49,5.07,12.73,10.46,19.15,15.62a4,4,0,0,0,3,1c.62-.2,1-1.81,1.11-2.82.4-6,.54-12.09,1-18.11,1-11.82,4.44-23.06,7.83-34.36.3-1,.58-2,.83-3a26.14,26.14,0,0,1-6.25,3.22C201.3,239.88,198.19,251.63,197.64,263.91Z"/><path class="cls-3" d="M151.82,8.27c.24.13.59.21.75.43,13.29,17.52,24.32,36.1,27.55,58.38a56.11,56.11,0,0,1,.09,17.3c1.62.3,3.36.61,4.92,1,.14-.81.25-1.64.34-2.47,1.3-12.08-1.14-23.66-4.83-35C175.54,32.18,166.3,18.8,156.7,5.63c-2.74-3.75-3.42-3.95-7.41-1.56-24.68,14.82-37.07,38.86-36.68,63.1l4.85-1.36C117.71,44.47,127.81,22.71,151.82,8.27Z"/><path class="cls-3" d="M289.27,136.56c-14.7-8.51-29.21-17.4-44.34-25.07-10-5-20.38-7.61-30.85-7.16,0,0,1.86,2.4,3.88,5.2a55.66,55.66,0,0,1,21.51,5c11.45,5.18,22.24,11.79,33.32,17.79,3.84,2.08,7.73,4.1,11.38,6.49a4.93,4.93,0,0,1,1.57,3.8c-1.51,28.75-27.67,42.81-50.22,39.61a42.59,42.59,0,0,1-1.18,5c25.36,3.56,55-11.38,56.34-47C290.72,139,290.16,137.08,289.27,136.56Z"/><path class="cls-2" d="M224.7,130.71V132l7.83-1.55A30.94,30.94,0,0,0,224.7,130.71Z"/><path class="cls-2" d="M224.14,122.42c.05.31.1.64.14,1,4.25-.47,8.57-.49,12.85-.75A48.82,48.82,0,0,0,224.14,122.42Z"/><path class="cls-2" d="M243.57,162.79,235.15,161c.17.44.34.88.49,1.33A45,45,0,0,0,243.57,162.79Z"/><path class="cls-2" d="M237.63,174l-.63-.15c0,.29-.06.57-.1.86l.63.14C237.56,174.52,237.6,174.24,237.63,174Z"/><path class="cls-4" d="M95.68,217.59c-3.22,4.06-6.28,8.27-9.72,12.14s-7.07,7.35-10.75,10.87S67.77,247.37,64,250.75C78.65,243.94,87.77,231.2,95.68,217.59Z"/><path class="cls-2" d="M66.89,206.71l6.75-3.82-.48-.91-6.78,3.81Z"/><path class="cls-5" d="M152,38.08l-6,25.45a19.68,19.68,0,0,1,5.09,4.4s.1,0,.11,0C151.78,58,152,38.08,152,38.08Z"/><path class="cls-3" d="M236.79,175.51c.05-.28.08-.56.11-.84s.07-.57.1-.86a27,27,0,0,0-1.36-11.46c-.15-.45-.32-.89-.49-1.33a41.89,41.89,0,0,0-3.47-6.88c-2.1-3.42-8.18-6.75-8.18-6.75s.35-2.33.67-5.77c0-.3.05-.59.08-.9.22-2.54.41-5.57.45-8.68v-1.33a62.16,62.16,0,0,0-.42-7.33c0-.32-.09-.65-.14-1a20,20,0,0,0-1.94-6.5,74.47,74.47,0,0,0-4.24-6.39c-2-2.8-3.88-5.19-3.88-5.2h0s-9.49-7.76-13.9-12.55c-1.52-1.66-10.17-4.43-12.62-5.55a16,16,0,0,0-2.43-.83c-1.56-.41-3.3-.72-4.92-1-1-.19-1.93-.37-2.75-.56S164,86.2,158.93,89c-1.72-5.35-3.51-11.43-5.65-17.39a12.93,12.93,0,0,0-2-3.56c-.24-.3-.48-.6-.74-.89-3.07-3.4-7.77-5.81-12-5.63-2.92.12-5.82.42-8.73.77-2.81.82-7.75,2.22-12.33,3.5l-4.85,1.36-5.82,1.62-6.27,2.93s-12.38,5.87-12.14,6A45.4,45.4,0,0,0,84,82.38c-1,1.18-2,2.42-2.9,3.68-4.67,6.23-8.52,12.74-8.52,12.74l-.83,7.29s3.11,7.33,4.46,11.29A7,7,0,0,1,77,119.3c.14.54.28,1.09.43,1.62a7.16,7.16,0,0,0,.47,1.31c.93.73,1.85,1.79,3.24,3-2.14.33-3.4.84-4.54.64-4-.72-11.51,6.18-11.64,6.75,0,0,0,.05,0,.13s-.17.51-.31.91a14.27,14.27,0,0,0-.79,2.87c-.13,2.16-.48,5.58-.78,8.73-.24,2.48-.44,4.8-.48,6.2,0,.21,0,.4,0,.57.14.64-.8,16.86.89,24.88.16.77.81,3,1.53,5.44.55,1.83,1.14,3.78,1.62,5.32s.88,2.87.88,2.87,2.81,5.92,5.7,11.42l.48.91c1.14,2.16,2.24,4.21,3.1,5.78,2.36,4.3,6.26,4.58,10.44,4.14C88.31,212.69,91,212,91,212l6.18-3a9.38,9.38,0,0,1-.06,3.52c-3.16,7.54,4.46,19.25,4.46,19.25l6.34,4.7s3.19,1.35,5.63,2.58c.61.31,1.17.61,1.63.87,0,0,1.32.36,3.23.84,5.82,1.46,17.6,4.34,19.15,4.43l0-.13,1.61.08,11.92.64q4.92.28,9.77.64c1.16.09,2.33.17,3.49.27.94.08,3.22-.06,3.22-.06s11.94-.37,15.82-6.09c3.48-5.12,2.63-10.58,2.68-16.28,3.78,1.31,7.65,2.71,11.57,4a11.9,11.9,0,0,0,7.49,0,26.14,26.14,0,0,0,6.25-3.22l.46-.31a33.48,33.48,0,0,0,5.36-5.43c3-4.44,9.53-13.18,9.53-13.18s3.85-8.34,4-9c.95-3.43,2.36-6.73,3.49-9.82,0,0,.07,0,.11-.14a42.59,42.59,0,0,0,1.18-5C236.13,179.25,236.73,176,236.79,175.51Zm-81.11-43.14a250,250,0,0,0,4-25.6c1.37-11.85,8.46-18.32,19.48-17.7,1,.06,2,.15,3,.31.67.11,1.34.24,2,.38a51.31,51.31,0,0,1,25.74,14.91,46.35,46.35,0,0,1,4,4.91,34.33,34.33,0,0,1,5.91,13c0,.17.07.34.1.51q.07.48.15.93c.16,1.15.25,2.17.31,2.65a22.77,22.77,0,0,1-.48,4.81,14.94,14.94,0,0,1-.44,1.6c-1.42,4.35-4.47,6.94-8.91,8.17-.44.12-.89.23-1.35.32l-1.8.39c-11.94,2.48-23.83,5.2-35.62,8.26-4.06,1.06-6.89,1.39-8.94-2.92-.78-1.65-2.16-3.57-3.74-4.19C153.22,140.8,154.63,137.06,155.68,132.37Zm4.11,27.73a13.15,13.15,0,0,1-13,13c-8.22-.09-15.51-5.86-14.79-12.74.9-8.59,5-14.47,15.05-14.49C154.4,145.9,159.91,152.07,159.79,160.1ZM89.16,125.3a97.17,97.17,0,0,1-6.44-9.11,30.17,30.17,0,0,1-2.81-5.68c-.09-.25-.16-.49-.24-.73-2.41-7.42-.35-14.1,6.15-20.77l.42-.4q1.71-1.71,3.54-3.22C96.62,79.75,104.65,76.05,113,73l2.39-.87c.76-.27,1.52-.52,2.28-.76a121.52,121.52,0,0,1,14.15-3.29c8.48-1.58,15.17,1.65,17.37,9.85.25.92.5,2,.75,3.23.19.93.38,1.93.57,3,1.61,9,3,21.26,3,21.26s-1.52,20.16-2.33,30.24c-.27,3.28-1.65,5-5.48,4.9-6.93-.17-11.62,4.24-15.26,9.41-2.17,3.08-4,3.34-7.15,1.91a91.56,91.56,0,0,1-32-24C90.53,127,89.84,126.16,89.16,125.3ZM67.49,190.54ZM92.37,206c-.78-.18-1.54-.39-2.3-.61l-.35-.1a34.35,34.35,0,0,1-10.87-5.39l-.88-.67a27.39,27.39,0,0,1-9.08-13.65A32.4,32.4,0,0,1,67.77,180c-.06-.51-.12-1-.16-1.52A163.53,163.53,0,0,1,68.34,151q.3-3,.64-5.91.48-4.06,1-8.1a12.9,12.9,0,0,1,.59-2.58,6.68,6.68,0,0,1,.33-.82c2.19-4.94,7.47-4.9,13.12-.64l.78.57.16.12c8.62,6.43,17.72,12.34,26.9,18.06,6.1,3.81,8.68,10.23,5,16.08C109,180.38,100.82,192.88,92.37,206Zm81,32.84a176.94,176.94,0,0,1-21.71.28c-3.14-.15-6.27-.41-9.39-.75a144.41,144.41,0,0,1-21.13-3.93c-1.51-.41-3-.82-4.53-1.28l-.38-.13c-11.63-3.71-15.51-12.47-12.51-25.87,2.66-11.92,8.63-22.35,15.06-32.54,2.29-3.62,4.72-7.15,7.54-11.42,2.22,6.53,5.79,11,11.25,13.11a30,30,0,0,0,12.11,1.89c3.18-.19,4.27.49,5.79,3.21,5.64,10.11,11.64,20,17.74,29.86a39.37,39.37,0,0,1,6.05,21C179.29,236.44,177.19,238.6,173.36,238.88Zm39.85-24.68c-.37.49-.74,1-1.12,1.46a23.53,23.53,0,0,1-4.79,4.64c-4.16,2.91-8.63,3-14.14-.25a50,50,0,0,1-14.42-12.74c-7-9.38-13-19.53-19.14-29.51-.68-1.11-.33-3.7.55-4.77a20.64,20.64,0,0,0,5.11-12.62c0-1,.89-2.74,1.69-2.95,12-3.16,24.05-6.13,36.34-9.22,5.78,1.91,11.5,3.11,16.56,5.62a20.09,20.09,0,0,1,7,5.4,15,15,0,0,1,.93,1.32c2,3.2,2.67,7,2.08,11.61,0,.29-.08.59-.13.89s-.05.36-.08.55q-.63,3.5-1.42,6.92-.59,2.55-1.28,5A83.27,83.27,0,0,1,213.21,214.2Z"/></g></g></svg>