<svg xmlns="http://www.w3.org/2000/svg" viewBox="0 0 230.09 175.86"><defs><style>.cls-1{fill:#282555;}</style></defs><g id="Слой_2" data-name="Слой 2"><g id="Слой_1-2" data-name="Слой 1"><path class="cls-1" d="M47.39,112.31q2.73,0,7-.14c2.83-.09,4.8-.14,5.89-.14h3.15a15.25,15.25,0,0,1,2.33.14,8.78,8.78,0,0,0,1.1.14,57.16,57.16,0,0,0,9.58.54h7.12q-15.89,24.66-33.69,54l-18.08,3.56Q6.3,175.3,3.56,175.31,0,175.31,0,171.2q0-4.94,8.49-20,7.13-12.6,9-14.79t6.57-2.19q16.44,0,16.44-3.29,0-1.63-10.14-1.64H20.54q1.65-2.75,4.8-8.22t4.52-8.22Zm40-103.82Q92.59,0,94.23,0c.55,0,.82.55.82,1.64,0,.19-.18,1.37-.55,3.56a34.34,34.34,0,0,0-1.09,7.4c0,1.46.41,2.38,1.23,2.74a25.08,25.08,0,0,0,5.61,1.1l7.13.82L120,61.08q11.51,39.72,11.5,44.1,0,1.11-38.62,1.1-37.8,0-40,1.64-1.65,1.65-3-.27c-.73-1.1-3.56-1.64-8.49-1.64q-6.57,0-6.57-1.1a4.15,4.15,0,0,1,.55-1.64Q39.17,94.23,87.38,8.49Zm74.78,49.58,25.47-44.92,20.55,1.09q21.91,1.11,21.91,2.2,0,2.46-42.46,78.88-3.56,6.59-10.13,18.36Q150.92,161.6,144.63,169q-6.57,6.3-14.25,6.57h-7.66l-12.06.28-5.48-8.5a48.51,48.51,0,0,1-4.93-11,196.33,196.33,0,0,1-4.1-20.27q-.56-4.39-1.51-10.27t-1.37-8.77a36.26,36.26,0,0,1-.41-3.7q0-.54,24.38-1.64,17.52-.83,21.36-1.51a14,14,0,0,0,7.12-3.7q4.38-3.83,4.39-7.67c0-1.27-.19-1.91-.55-1.91-.37-.18-2,1.09-4.93,3.83q-5.2,5.2-6.85,5.21c-.55,0-.82-.55-.82-1.65Q137,103.54,162.16,58.07ZM166.54,94c-.37-1.09-1.37-1.82-3-2.19a4.42,4.42,0,0,0-3.84.55,2.64,2.64,0,0,0-.68,1.92c.09.55.59,1,1.51,1.37a7.91,7.91,0,0,0,3,.55,4.59,4.59,0,0,0,2.33-.55A1.35,1.35,0,0,0,166.54,94Z"/></g></g></svg>